<svg width="202" height="33" viewBox="0 0 202 33" fill="none" xmlns="http://www.w3.org/2000/svg">
<path d="M55.0429 11.9219H51.734V7.77767H45.3409V11.9219H42V1.17594H45.3409V4.98298H51.734V1.17594H55.0429V11.9219Z" fill="#0B539F"/>
<path d="M72.4704 1.17594L66.0933 8.37193V11.9219H62.752V8.35591L56.1987 1.17594H60.4715L63.042 4.16366C63.1275 4.26018 63.2396 4.38619 63.3787 4.54087C63.5178 4.69681 63.6628 4.85991 63.8124 5.03103C63.9624 5.20256 64.1015 5.36356 64.2305 5.51318C64.359 5.66279 64.4496 5.77532 64.5032 5.85034C64.6102 5.7003 64.7657 5.49716 64.9689 5.24007C65.1724 4.98298 65.467 4.61926 65.8522 4.14765L68.2938 1.17594H72.4704Z" fill="#0B539F"/>
<path d="M85.8186 6.4446C85.8186 7.2264 85.6551 7.95216 85.3288 8.62101C85.0022 9.29071 84.5521 9.86895 83.9798 10.3557C83.4066 10.8434 82.7238 11.226 81.9315 11.5046C81.1387 11.7828 80.2772 11.9219 79.3458 11.9219H72.1494V5.22405H75.4903V9.15921H79.3458C79.8056 9.15921 80.2313 9.09768 80.6224 8.97461C81.0135 8.85155 81.3482 8.67749 81.6263 8.45243C81.9049 8.22737 82.1241 7.95721 82.2851 7.64154C82.4456 7.32587 82.5261 6.97479 82.5261 6.58916C82.5261 6.21448 82.4456 5.86636 82.2851 5.5452C82.1241 5.22405 81.8994 4.94842 81.6103 4.71788C81.3212 4.48776 80.9836 4.3057 80.5984 4.17167C80.2128 4.03807 79.7951 3.97106 79.3458 3.97106H72.1494L74.2698 1.17594H79.3458C80.2878 1.17594 81.1551 1.30491 81.9475 1.56158C82.7398 1.81825 83.4226 2.18028 83.9958 2.64557C84.5681 3.1117 85.0157 3.66845 85.3369 4.31623C85.658 4.96443 85.8186 5.67375 85.8186 6.4446Z" fill="#0B539F"/>
<path d="M102.749 11.9219H98.2996L95.9066 9.07914H90.7985V11.9219H87.4736V6.42858H96.822C97.3358 6.42858 97.7699 6.32153 98.1226 6.10743C98.4762 5.89291 98.6528 5.59873 98.6528 5.22363C98.6528 4.80597 98.4922 4.49282 98.1711 4.2842C97.8499 4.07558 97.4002 3.97106 96.822 3.97106H87.4736L89.6416 1.17594H96.5489C97.1592 1.17594 97.7909 1.23242 98.4442 1.34453C99.0975 1.45706 99.6917 1.65767 100.227 1.94721C100.763 2.23633 101.204 2.62703 101.552 3.11971C101.9 3.6124 102.074 4.24374 102.074 5.01501C102.074 5.43268 102.01 5.82885 101.882 6.20395C101.753 6.57862 101.568 6.91579 101.327 7.21545C101.087 7.51553 100.792 7.76966 100.444 7.97871C100.096 8.18775 99.7023 8.33442 99.2631 8.41998C99.4452 8.55948 99.6492 8.73607 99.8738 8.95017C100.099 9.16469 100.399 9.45887 100.774 9.83397L102.749 11.9219Z" fill="#0B539F"/>
<path d="M111.069 9.30254C111.904 9.30254 112.611 9.26798 113.189 9.19802C113.768 9.12848 114.236 8.99235 114.595 8.78836C114.954 8.58522 115.213 8.30411 115.374 7.94502C115.535 7.58678 115.615 7.1177 115.615 6.53946C115.615 5.96122 115.535 5.49298 115.374 5.13389C115.213 4.77565 114.954 4.49749 114.595 4.29898C114.236 4.1009 113.768 3.9673 113.189 3.89733C112.611 3.82779 111.904 3.79323 111.069 3.79323C110.234 3.79323 109.527 3.82779 108.949 3.89733C108.371 3.9673 107.902 4.1009 107.544 4.29898C107.184 4.49749 106.925 4.77565 106.764 5.13389C106.604 5.49298 106.524 5.96122 106.524 6.53946C106.524 7.1177 106.604 7.58678 106.764 7.94502C106.925 8.30411 107.184 8.58522 107.544 8.78836C107.902 8.99235 108.371 9.12848 108.949 9.19802C109.527 9.26798 110.234 9.30254 111.069 9.30254ZM111.069 0.998119C113.682 0.998119 115.644 1.44276 116.956 2.33119C118.268 3.22005 118.924 4.62266 118.924 6.53946C118.924 8.46763 118.271 9.8753 116.964 10.7642C115.658 11.653 113.693 12.0977 111.069 12.0977C108.435 12.0977 106.467 11.653 105.166 10.7642C103.865 9.8753 103.214 8.46763 103.214 6.53946C103.214 4.62266 103.868 3.22005 105.174 2.33119C106.48 1.44276 108.445 0.998119 111.069 0.998119Z" fill="#0B539F"/>
<path d="M134.794 5.20762C134.794 5.80735 134.676 6.35103 134.44 6.83782C134.205 7.32545 133.859 7.74016 133.404 8.08281C132.949 8.42588 132.395 8.6935 131.742 8.88611C131.088 9.07914 130.344 9.17523 129.509 9.17523H123.887V11.9219H120.578V6.42816H129.83C130.344 6.42816 130.743 6.31605 131.027 6.09142C131.311 5.86594 131.453 5.5667 131.453 5.1916C131.453 4.81693 131.311 4.5198 131.027 4.30022C130.743 4.08064 130.344 3.97064 129.83 3.97064H120.578L122.779 1.17594H129.525C130.36 1.17594 131.104 1.27499 131.758 1.47307C132.411 1.67116 132.962 1.94721 133.412 2.3004C133.862 2.65358 134.205 3.07672 134.44 3.56899C134.676 4.06167 134.794 4.60788 134.794 5.20762Z" fill="#0B539F"/>
<path d="M143.998 9.30254C144.833 9.30254 145.54 9.26798 146.118 9.19802C146.696 9.12848 147.165 8.99235 147.524 8.78836C147.882 8.58522 148.142 8.30411 148.303 7.94502C148.464 7.58678 148.544 7.1177 148.544 6.53946C148.544 5.96122 148.464 5.49298 148.303 5.13389C148.142 4.77565 147.882 4.49749 147.524 4.29898C147.165 4.1009 146.696 3.9673 146.118 3.89733C145.54 3.82779 144.833 3.79323 143.998 3.79323C143.163 3.79323 142.456 3.82779 141.878 3.89733C141.3 3.9673 140.831 4.1009 140.472 4.29898C140.113 4.49749 139.854 4.77565 139.693 5.13389C139.532 5.49298 139.452 5.96122 139.452 6.53946C139.452 7.1177 139.532 7.58678 139.693 7.94502C139.854 8.30411 140.113 8.58522 140.472 8.78836C140.831 8.99235 141.3 9.12848 141.878 9.19802C142.456 9.26798 143.163 9.30254 143.998 9.30254ZM143.998 0.998119C146.61 0.998119 148.573 1.44276 149.885 2.33119C151.196 3.22005 151.853 4.62266 151.853 6.53946C151.853 8.46763 151.199 9.8753 149.893 10.7642C148.586 11.653 146.621 12.0977 143.998 12.0977C141.364 12.0977 139.396 11.653 138.095 10.7642C136.794 9.8753 136.143 8.46763 136.143 6.53946C136.143 4.62266 136.796 3.22005 138.103 2.33119C139.409 1.44276 141.374 0.998119 143.998 0.998119Z" fill="#0B539F"/>
<path d="M163.674 7.92142C163.438 7.50376 163.234 7.13709 163.063 6.82099C162.892 6.50532 162.736 6.22126 162.597 5.96965C162.458 5.71804 162.338 5.49045 162.236 5.28688C162.134 5.08374 162.035 4.88565 161.939 4.69263C161.853 4.88565 161.759 5.08374 161.658 5.28688C161.556 5.49045 161.438 5.71804 161.304 5.96965C161.171 6.22126 161.018 6.50237 160.846 6.81299C160.675 7.1236 160.471 7.48774 160.236 7.90541L158.517 10.9572C158.325 11.3003 158.081 11.5755 157.786 11.7845C157.492 11.9931 157.125 12.0977 156.686 12.0977C156.269 12.0977 155.891 11.9771 155.554 11.736C155.217 11.495 154.973 11.1232 154.823 10.6196L152.092 1.17471H155.417L156.43 4.91769C156.6 5.52796 156.743 6.06363 156.855 6.52386C156.967 6.9841 157.066 7.43422 157.152 7.87338C157.323 7.49828 157.524 7.08356 157.754 6.62839C157.984 6.17321 158.287 5.5975 158.662 4.90167L160.108 2.20307C160.247 1.93544 160.386 1.72387 160.525 1.56877C160.664 1.41368 160.811 1.29272 160.967 1.20674C161.122 1.12119 161.285 1.06513 161.457 1.03858C161.628 1.01161 161.81 0.998119 162.003 0.998119C162.206 0.998119 162.394 1.01161 162.565 1.03858C162.736 1.06513 162.9 1.12119 163.055 1.20674C163.21 1.29272 163.36 1.41368 163.505 1.56877C163.649 1.72387 163.791 1.93544 163.93 2.20307L165.36 4.91769C165.563 5.29278 165.74 5.62194 165.89 5.90558C166.04 6.18923 166.174 6.44632 166.292 6.67643C166.409 6.90697 166.514 7.11812 166.605 7.31115C166.696 7.50376 166.784 7.69088 166.87 7.87338C166.955 7.44475 167.06 6.99506 167.183 6.52386C167.306 6.05267 167.448 5.51742 167.609 4.91769L168.621 1.17471H171.865L169.087 10.6196C168.936 11.1232 168.693 11.495 168.356 11.736C168.018 11.9771 167.641 12.0977 167.223 12.0977C166.795 12.0977 166.434 11.9957 166.139 11.7925C165.844 11.589 165.595 11.3104 165.392 10.9572L163.674 7.92142Z" fill="#0B539F"/>
<path d="M185.616 9.15921L183.48 11.9219H173.136V1.17594H185.584L183.432 3.97064H176.476V5.25566H184.99L183.078 7.69717H176.476V9.15921H185.616Z" fill="#0B539F"/>
<path d="M202 11.9219H197.551L195.158 9.07914H190.049V11.9219H186.725V6.42858H196.073C196.587 6.42858 197.021 6.32153 197.374 6.10743C197.727 5.89291 197.904 5.59873 197.904 5.22363C197.904 4.80597 197.743 4.49282 197.422 4.2842C197.101 4.07558 196.651 3.97106 196.073 3.97106H186.725L188.893 1.17594H195.8C196.41 1.17594 197.042 1.23242 197.695 1.34453C198.348 1.45706 198.943 1.65767 199.478 1.94721C200.014 2.23633 200.455 2.62703 200.803 3.11971C201.151 3.6124 201.325 4.24374 201.325 5.01501C201.325 5.43268 201.261 5.82885 201.133 6.20395C201.004 6.57862 200.819 6.91579 200.578 7.21545C200.338 7.51553 200.043 7.76966 199.695 7.97871C199.347 8.18775 198.953 8.33442 198.514 8.41998C198.696 8.55948 198.9 8.73607 199.125 8.95017C199.35 9.16469 199.649 9.45887 200.025 9.83397L202 11.9219Z" fill="#0B539F"/>
<path d="M68.4862 24.7347C69.8033 24.7347 70.8047 24.9778 71.49 25.465C72.1753 25.9527 72.5179 26.689 72.5179 27.6739C72.5179 28.2201 72.4319 28.7124 72.2612 29.1515C72.0897 29.5907 71.8166 29.9599 71.4419 30.2596C71.0668 30.5596 70.5876 30.7898 70.0043 30.9508C69.4206 31.1113 68.7218 31.1914 67.908 31.1914H57.9009L60.0373 28.4287H68.1651C68.5613 28.4287 68.85 28.3672 69.0324 28.2441C69.2145 28.1211 69.3056 27.9205 69.3056 27.6415C69.3056 27.3633 69.2145 27.1656 69.0324 27.0472C68.85 26.9296 68.5613 26.8706 68.1651 26.8706H62.3182C61.6224 26.8706 61.0226 26.796 60.5194 26.6456C60.0158 26.4959 59.5981 26.2873 59.2664 26.0193C58.9343 25.7516 58.6882 25.428 58.5276 25.0474C58.367 24.6676 58.2865 24.2475 58.2865 23.7868C58.2865 23.2836 58.375 22.8259 58.5516 22.4133C58.7282 22.0015 59.0013 21.6504 59.3709 21.3613C59.7401 21.0722 60.2164 20.8471 60.8005 20.687C61.3838 20.5264 62.0826 20.4455 62.8964 20.4455H72.2288L70.0928 23.2406H62.6398C62.2541 23.2406 61.9671 23.2945 61.7804 23.4012C61.5929 23.5086 61.4989 23.7012 61.4989 23.9794C61.4989 24.258 61.5929 24.4535 61.7804 24.5661C61.9671 24.6782 62.2541 24.7347 62.6398 24.7347H68.4862Z" fill="#0B539F"/>
<path d="M81.5144 28.5764C82.3497 28.5764 83.0565 28.5414 83.6348 28.4719C84.213 28.4023 84.6817 28.2658 85.0403 28.0622C85.399 27.8591 85.6586 27.578 85.8192 27.2189C85.9802 26.8602 86.0602 26.3916 86.0602 25.8133C86.0602 25.2351 85.9802 24.7668 85.8192 24.4078C85.6586 24.0495 85.399 23.7714 85.0403 23.5728C84.6817 23.3748 84.213 23.2412 83.6348 23.1712C83.0565 23.1017 82.3497 23.0671 81.5144 23.0671C80.6795 23.0671 79.9727 23.1017 79.3945 23.1712C78.8162 23.2412 78.3471 23.3748 77.9889 23.5728C77.6298 23.7714 77.3702 24.0495 77.2096 24.4078C77.049 24.7668 76.969 25.2351 76.969 25.8133C76.969 26.3916 77.049 26.8602 77.2096 27.2189C77.3702 27.578 77.6298 27.8591 77.9889 28.0622C78.3471 28.2658 78.8162 28.4023 79.3945 28.4719C79.9727 28.5414 80.6795 28.5764 81.5144 28.5764ZM81.5144 20.272C84.127 20.272 86.0893 20.7166 87.4013 21.6051C88.7129 22.4939 89.3691 23.8965 89.3691 25.8133C89.3691 27.7411 88.7159 29.1492 87.4093 30.038C86.1028 30.9269 84.138 31.3711 81.5144 31.3711C78.8803 31.3711 76.9125 30.9269 75.6114 30.038C74.3104 29.1492 73.6597 27.7411 73.6597 25.8133C73.6597 23.8965 74.3129 22.4939 75.6195 21.6051C76.9256 20.7166 78.8904 20.272 81.5144 20.272Z" fill="#0B539F"/>
<path d="M102.702 28.4283L100.55 31.1914H91.0566V20.4455H94.3815V28.4283H102.702Z" fill="#0B539F"/>
<path d="M117.768 26.5041C117.768 29.7489 115.535 31.3711 111.07 31.3711C109.774 31.3711 108.661 31.2695 107.729 31.066C106.798 30.8628 106.029 30.5573 105.424 30.1501C104.819 29.7438 104.375 29.2372 104.091 28.6325C103.807 28.0277 103.665 27.3183 103.665 26.5041V20.4486H106.974V26.5041C106.974 26.9003 107.028 27.2328 107.135 27.5C107.242 27.768 107.443 27.9847 107.737 28.1503C108.031 28.3168 108.446 28.4344 108.982 28.5039C109.517 28.5739 110.213 28.6084 111.07 28.6084C111.713 28.6084 112.248 28.5709 112.676 28.4963C113.105 28.4213 113.448 28.2978 113.704 28.1267C113.962 27.9552 114.146 27.7356 114.259 27.468C114.371 27.2003 114.427 26.8792 114.427 26.5041V20.4486H117.768V26.5041Z" fill="#0B539F"/>
<path d="M132.995 20.4455L130.842 23.2406H127.003V31.1914H123.678V23.2406H118.635L120.787 20.4455H132.995Z" fill="#0B539F"/>
<path d="M137.38 31.1914H134.055V20.4455H137.38V31.1914Z" fill="#0B539F"/>
<path d="M146.97 28.5764C147.805 28.5764 148.512 28.5414 149.09 28.4719C149.669 28.4023 150.137 28.2658 150.496 28.0622C150.855 27.8591 151.114 27.578 151.275 27.2189C151.436 26.8602 151.516 26.3916 151.516 25.8133C151.516 25.2351 151.436 24.7668 151.275 24.4078C151.114 24.0495 150.855 23.7714 150.496 23.5728C150.137 23.3748 149.669 23.2412 149.09 23.1712C148.512 23.1017 147.805 23.0671 146.97 23.0671C146.135 23.0671 145.428 23.1017 144.85 23.1712C144.272 23.2412 143.803 23.3748 143.444 23.5728C143.085 23.7714 142.826 24.0495 142.665 24.4078C142.505 24.7668 142.425 25.2351 142.425 25.8133C142.425 26.3916 142.505 26.8602 142.665 27.2189C142.826 27.578 143.085 27.8591 143.444 28.0622C143.803 28.2658 144.272 28.4023 144.85 28.4719C145.428 28.5414 146.135 28.5764 146.97 28.5764ZM146.97 20.272C149.583 20.272 151.545 20.7166 152.857 21.6051C154.168 22.4939 154.825 23.8965 154.825 25.8133C154.825 27.7411 154.171 29.1492 152.865 30.038C151.558 30.9269 149.594 31.3711 146.97 31.3711C144.336 31.3711 142.368 30.9269 141.067 30.038C139.766 29.1492 139.115 27.7411 139.115 25.8133C139.115 23.8965 139.768 22.4939 141.075 21.6051C142.381 20.7166 144.346 20.272 146.97 20.272Z" fill="#0B539F"/>
<path d="M167.4 31.3711C167.186 31.3711 166.975 31.3365 166.766 31.267C166.557 31.197 166.324 31.0394 166.067 30.7929L159.482 24.8819V31.1945H156.462V22.2798C156.462 21.9266 156.512 21.6211 156.614 21.3644C156.716 21.1069 156.85 20.8983 157.016 20.7381C157.182 20.5775 157.374 20.4595 157.594 20.3845C157.814 20.3099 158.041 20.272 158.277 20.272C158.48 20.272 158.686 20.307 158.895 20.3765C159.104 20.446 159.342 20.6041 159.61 20.8502L166.196 26.7612V20.4486H169.232V29.3472C169.232 29.7009 169.181 30.006 169.079 30.2627C168.977 30.5197 168.843 30.7313 168.677 30.8974C168.511 31.0639 168.316 31.184 168.091 31.2586C167.866 31.3336 167.636 31.3711 167.4 31.3711Z" fill="#0B539F"/>
<path d="M181.15 24.7347C182.467 24.7347 183.469 24.9778 184.154 25.465C184.839 25.9527 185.182 26.689 185.182 27.6739C185.182 28.2201 185.096 28.7124 184.925 29.1515C184.754 29.5907 184.481 29.9599 184.106 30.2596C183.731 30.5596 183.252 30.7898 182.668 30.9508C182.085 31.1113 181.386 31.1914 180.572 31.1914H170.565L172.701 28.4287H180.829C181.225 28.4287 181.514 28.3672 181.697 28.2441C181.879 28.1211 181.97 27.9205 181.97 27.6415C181.97 27.3633 181.879 27.1656 181.697 27.0472C181.514 26.9296 181.225 26.8706 180.829 26.8706H174.982C174.286 26.8706 173.687 26.796 173.184 26.6456C172.68 26.4959 172.262 26.2873 171.931 26.0193C171.598 25.7516 171.352 25.428 171.192 25.0474C171.031 24.6676 170.951 24.2475 170.951 23.7868C170.951 23.2836 171.039 22.8259 171.216 22.4133C171.393 22.0015 171.665 21.6504 172.035 21.3613C172.404 21.0722 172.881 20.8471 173.465 20.687C174.048 20.5264 174.747 20.4455 175.561 20.4455H184.893L182.757 23.2406H175.304C174.918 23.2406 174.631 23.2945 174.445 23.4012C174.257 23.5086 174.163 23.7012 174.163 23.9794C174.163 24.258 174.257 24.4535 174.445 24.5661C174.631 24.6782 174.918 24.7347 175.304 24.7347H181.15Z" fill="#0B539F"/>
<path d="M25.3888 17.2447C25.3888 22.3108 21.2819 26.418 16.2155 26.418C11.1493 26.418 7.04248 22.3108 7.04248 17.2447C7.04248 12.1785 11.1493 8.0714 16.2155 8.0714C21.2819 8.0714 25.3888 12.1785 25.3888 17.2447Z" stroke="#30ABE0" stroke-width="0.0944552"/>
<path d="M16.3062 5.15625V4.88815" stroke="#30ABE0" stroke-width="0.11257"/>
<path d="M16.3062 1.04688V0.429164" stroke="#30ABE0" stroke-width="0.11257"/>
<path d="M5.28556 16.3008H5.12744" stroke="#30ABE0" stroke-width="0.11257"/>
<path d="M1.05689 16.3008H0.664062" stroke="#30ABE0" stroke-width="0.11257"/>
<path d="M28.2423 20.7078L28.1657 20.9185L30.1915 22.7481L28.8313 25.0996L26.2308 24.2614L26.0872 24.4387C25.589 25.0326 25.0334 25.5833 24.4395 26.0814L24.2623 26.23L25.1054 28.8258L22.7538 30.186L20.9242 28.16L20.7087 28.2415C19.9903 28.5049 19.2336 28.706 18.4624 28.84L18.2326 28.8783L17.6626 31.5508H14.9472L14.3773 28.8783L14.1473 28.84C13.3714 28.706 12.6194 28.5049 11.901 28.2415L11.6855 28.16L9.85615 30.186L7.50461 28.8258L7.51418 28.7971L8.34746 26.23L8.34254 26.2251L8.17019 26.0814C7.57163 25.5833 7.02069 25.0326 6.52279 24.4387L6.37891 24.2614L3.77841 25.0996L2.41826 22.7481L2.42784 22.7385L4.33868 21.0142L4.41528 20.9472L4.44426 20.9185L4.3674 20.7078C4.26208 20.4203 4.16633 20.1235 4.08015 19.8218C3.95076 19.3764 3.85035 18.9215 3.76884 18.457L3.73054 18.2318L1.05811 17.6571V16.3016H5.12899C5.12434 16.225 5.12434 16.1437 5.12434 16.0669C5.12434 9.88871 9.88954 4.87896 15.7662 4.87896C15.9481 4.87896 16.1254 4.88388 16.3073 4.89346V1.05236H17.6626L18.2326 3.7248H18.2373C18.2518 3.7248 18.2709 3.72972 18.2852 3.73438L18.4624 3.7631C18.9461 3.84953 19.4251 3.95951 19.8945 4.09356C19.9233 4.10314 19.952 4.11271 19.9758 4.11763C20.225 4.19423 20.4693 4.27574 20.7087 4.36192L20.9193 4.44317H20.9242L20.9483 4.41445L22.7489 2.42209L22.7538 2.41744L25.1054 3.77267L24.2623 6.37343L24.4395 6.52197C25.0334 7.0152 25.589 7.57081 26.0872 8.16471L26.2308 8.34172L28.8313 7.49887L30.1915 9.85041L28.1657 11.68L28.2423 11.8956C28.5058 12.6139 28.7068 13.3706 28.8409 14.1464L28.8792 14.3716L31.5516 14.9414V17.6571L28.8792 18.2318L28.8409 18.457C28.7068 19.2328 28.5058 19.9895 28.2423 20.7078Z" fill="#0B539F"/>
<path d="M30.1921 22.7484L28.8319 25.1L26.2312 24.2618L26.0876 24.4391C25.5894 25.033 25.0341 25.5836 24.4402 26.0818L24.2629 26.2303L25.1058 28.8262L22.7542 30.1863L20.9246 28.1603L20.7093 28.2418C19.9909 28.5053 19.234 28.7064 18.4631 28.8404L18.233 28.8787L17.6632 31.5511H14.9476L14.3777 28.8787L14.1479 28.8404C13.3721 28.7064 12.6201 28.5053 11.9017 28.2418L11.6861 28.1603L9.85654 30.1863L7.505 28.8262L7.51457 28.7975L8.34785 26.2303L8.34319 26.2254L8.17084 26.0818C7.57202 25.5836 7.02134 25.033 6.52318 24.4391L6.37956 24.2618L3.77906 25.1L2.41891 22.7484L2.42848 22.7389L4.33933 21.0146L4.41592 20.9476L4.44465 20.9189L4.36805 20.7082C4.26273 20.421 4.16698 20.1239 4.0808 19.8221C3.95141 19.3768 3.85075 18.9218 3.76949 18.4573L3.73119 18.2322L1.05849 17.6574V14.9418L3.73119 14.3719L3.76949 14.1468C3.90354 13.371 4.10461 12.6143 4.36805 11.8959L4.44465 11.6804L2.41891 9.85077L3.77906 7.49923L6.37956 8.34208L6.52318 8.16507C7.02134 7.57117 7.57202 7.01556 8.17084 6.52233L8.34785 6.37379L7.505 3.77303L9.85654 2.41779L11.6861 4.44354L11.9017 4.36228C12.6201 4.09884 13.3767 3.89777 14.1479 3.76346L14.3777 3.72516L14.9476 1.05272H17.6632L18.233 3.72516H18.238C18.2522 3.72516 18.2713 3.73008 18.2858 3.73473L18.4631 3.76346C18.9468 3.84989 19.4258 3.95987 19.8949 4.09392C19.9237 4.1035 19.9526 4.11307 19.9764 4.11799C20.2254 4.19459 20.4697 4.2761 20.7093 4.36228L20.92 4.44354H20.9246L20.9487 4.41481L22.7495 2.42245L22.7542 2.41779L25.1058 3.77303L24.2629 6.37379L24.4402 6.52233C25.0341 7.01556 25.5894 7.57117 26.0876 8.16507L26.2312 8.34208L28.8319 7.49923L30.1921 9.85077L28.1661 11.6804L28.243 11.8959C28.5061 12.6143 28.7075 13.371 28.8415 14.1468L28.8798 14.3719L31.5523 14.9418V17.6574L28.8798 18.2322L28.8415 18.4573C28.7075 19.2331 28.5061 19.9898 28.243 20.7082L28.1661 20.9189L30.1921 22.7484ZM32.2323 18.2081V14.3957L29.4688 13.8018C29.3443 13.1458 29.1766 12.4994 28.9564 11.8814L31.0541 9.98974L29.1433 6.6851L26.4563 7.55668C26.0255 7.05386 25.5511 6.58443 25.0532 6.14865L25.9199 3.46172L22.6155 1.55554L20.7285 3.64856C20.1058 3.43299 19.4641 3.26065 18.8031 3.13617L18.2139 0.372645H14.3969L13.8079 3.13617C13.147 3.26065 12.5052 3.43299 11.8825 3.64856L9.99551 1.55554L6.69087 3.46172L7.55779 6.14865C7.05964 6.58443 6.58555 7.05386 6.15442 7.55668L3.46775 6.6851L1.55665 9.98974L3.65433 11.8814C3.43411 12.4994 3.26642 13.1458 3.14194 13.8018L0.378418 14.3957V18.2081L3.14194 18.7974C3.26642 19.4583 3.43411 20.1047 3.65433 20.7224L1.55665 22.6144L3.46775 25.9141L6.15442 25.0474C6.58555 25.5503 7.05964 26.0194 7.55779 26.4555L6.69087 29.1421L9.99059 31.0483L11.8825 28.9553C12.5052 29.1709 13.147 29.3432 13.8079 29.468L14.3969 32.2266H18.2139L18.8031 29.468C19.4641 29.3432 20.1058 29.1709 20.7285 28.9553L22.6155 31.0483L25.9199 29.1421L25.0532 26.4555C25.5511 26.0194 26.0255 25.5503 26.4563 25.0474L29.1433 25.9141L31.0541 22.6144L28.9564 20.7224C29.1766 20.1047 29.3443 19.4583 29.4688 18.7974L32.2323 18.2081Z" fill="#0B539F"/>
<path d="M16.3073 1.05157V4.89266C16.1254 4.88309 15.9481 4.87817 15.7662 4.87817C9.88954 4.87817 5.12434 9.88792 5.12434 16.0661C5.12434 16.1427 5.12434 16.2242 5.12899 16.3008H1.05811V14.9406L3.73054 14.3708L3.76884 14.1457C3.90289 13.3698 4.10396 12.6131 4.3674 11.8945L4.44426 11.6792L2.41826 9.84962L3.77841 7.49807L6.37891 8.34093L6.52279 8.16366C7.02069 7.56976 7.57163 7.01441 8.17019 6.52092L8.34746 6.37263L7.50461 3.77188L9.85615 2.41664L11.6855 4.44238L11.901 4.36113C12.6194 4.09769 13.3761 3.89636 14.1473 3.76231L14.3773 3.72401L14.9472 1.05157H16.3073Z" fill="white"/>
<path d="M27.0918 16.8987C27.0918 23.0385 22.355 28.0195 16.5123 28.0195C13.5091 28.0195 10.7984 26.7023 8.87305 24.5855C10.7314 26.2523 13.1357 27.2579 15.7649 27.2579C21.6416 27.2579 26.4068 22.2484 26.4068 16.0654C26.4068 13.5317 25.6022 11.1946 24.2516 9.32206C26.0142 11.3048 27.0918 13.9677 27.0918 16.8987Z" fill="white"/>
<path d="M26.9197 21.9064L25.5163 24.3345L23.3086 23.0605C21.6276 25.1103 19.0747 26.418 16.2154 26.418C13.2941 26.418 10.6886 25.0529 9.01226 22.9218L6.8284 24.1813L5.42529 21.7532L7.63296 20.4839C7.24996 19.4782 7.04397 18.3862 7.04397 17.2462C7.04397 12.6247 10.4588 8.79806 14.9032 8.16586V5.64662H17.705V8.18966C22.0634 8.90338 25.3872 12.687 25.3872 17.2462C25.3872 18.4485 25.1571 19.5931 24.7358 20.6469L26.9197 21.9064Z" fill="white"/>
<path d="M14.356 17.208C14.356 18.2216 15.1776 19.043 16.191 19.043C17.2046 19.043 18.0263 18.2216 18.0263 17.208C18.0263 16.1946 17.2046 15.3729 16.191 15.3729C15.1776 15.3729 14.356 16.1946 14.356 17.208Z" fill="#0B539F"/>
<path d="M13.8113 10.2549C13.7828 13.655 11.8735 16.785 8.93817 18.3982C8.87477 18.0077 8.84294 17.6103 8.84294 17.2084C8.84294 14.0059 10.8718 11.2489 13.8113 10.2549ZM14.8976 10.1775C14.8976 9.74175 14.8689 9.31088 14.8164 8.88932C10.8125 9.54533 7.75684 13.0226 7.75684 17.2084C7.75684 18.1615 7.91495 19.0809 8.20712 19.9336C12.1199 18.4249 14.8976 14.6221 14.8976 10.1775Z" fill="#0B539F"/>
<path d="M20.8463 22.9002C20.5397 23.1504 20.2113 23.3769 19.8632 23.5779C18.7476 24.222 17.4814 24.5623 16.2009 24.5623C14.3954 24.5623 12.6856 23.9136 11.3581 22.7514C12.7648 21.9549 14.3561 21.5341 15.9647 21.5341C17.6905 21.5341 19.3852 22.0133 20.8463 22.9002ZM10.7469 21.8498C10.3695 22.0677 10.0106 22.3081 9.67188 22.5645C11.3017 24.5553 13.7228 25.6484 16.2009 25.6484C17.6307 25.6484 19.0799 25.2843 20.4061 24.5186C21.2314 24.0422 21.9487 23.4454 22.5411 22.7661C20.6729 21.258 18.34 20.448 15.9641 20.448C14.1902 20.448 12.3924 20.8998 10.7469 21.8498Z" fill="#0B539F"/>
<path d="M19.8671 10.8509C22.6405 12.452 24.0138 15.5876 23.4049 18.6304C20.4745 16.9056 18.7184 13.6871 18.7888 10.3385C19.1588 10.4788 19.519 10.6498 19.8671 10.8509ZM22.9285 19.6099C23.3061 19.8278 23.6937 20.0185 24.085 20.1836C25.5186 16.388 24.0353 12.0033 20.41 9.91023C19.5848 9.43382 18.7093 9.11086 17.8251 8.93773C17.175 13.0806 19.0794 17.3877 22.9285 19.6099Z" fill="#0B539F"/>
<path d="M16.9011 6.55298H15.7065V14.2773H16.9011V6.55298Z" fill="#0B539F"/>
<path d="M13.2935 18.0643L6.604 21.9263L7.20127 22.9609L13.8908 19.0989L13.2935 18.0643Z" fill="#0B539F"/>
<path d="M18.9762 18.2596L18.3789 19.2939L25.0684 23.1562L25.6657 22.1219L18.9762 18.2596Z" fill="#0B539F"/>
<path d="M3.72959 18.2344C3.9907 19.189 4.2764 20.139 4.66612 21.0406C3.88202 21.547 3.18382 22.1937 2.46907 22.8086L2.38574 22.6745C3.06918 22.061 3.71976 21.4521 4.48187 20.9146L4.44383 21.0362C4.12061 20.1199 3.91825 19.1769 3.72959 18.2344Z" fill="white"/>
<path d="M18.2173 3.72389C19.1598 3.91254 20.1028 4.1149 21.0191 4.43812L20.8975 4.47616C21.435 3.71405 22.062 3.04329 22.6758 2.35985L22.7915 2.46336C22.1766 3.17812 21.5299 3.87631 21.0235 4.66016C20.1219 4.27069 19.1719 3.985 18.2173 3.72389Z" fill="white"/>
<path d="M7.60032 28.8555L7.42383 28.7401L8.2496 26.197L8.44317 26.2596L7.60032 28.8555Z" fill="white"/>
</svg>
