<svg width="305" height="50" viewBox="0 0 305 50" fill="none" xmlns="http://www.w3.org/2000/svg">
<path d="M83.109 18H78.1129V11.7427H68.46V18H63.4155V1.77471H68.46V7.52295H78.1129V1.77471H83.109V18Z" fill="white"/>
<path d="M109.423 1.77471L99.7943 12.6399V18H94.7493V12.6158L84.8545 1.77471H91.3059L95.1871 6.28587C95.3163 6.4316 95.4855 6.62187 95.6955 6.85541C95.9055 7.09087 96.1244 7.33714 96.3504 7.5955C96.5769 7.8545 96.7869 8.09759 96.9816 8.3235C97.1757 8.54941 97.3125 8.71931 97.3933 8.83259C97.555 8.60604 97.7898 8.29932 98.0965 7.91114C98.4039 7.52296 98.8487 6.97378 99.4303 6.26169L103.117 1.77471H109.423Z" fill="white"/>
<path d="M129.578 9.72985C129.578 10.9103 129.331 12.0061 128.838 13.016C128.345 14.0272 127.665 14.9003 126.801 15.6353C125.936 16.3716 124.905 16.9494 123.708 17.37C122.511 17.79 121.211 18 119.804 18H108.938V7.88695H113.983V13.8287H119.804C120.499 13.8287 121.141 13.7357 121.732 13.5499C122.322 13.3641 122.828 13.1013 123.248 12.7615C123.668 12.4217 123.999 12.0138 124.242 11.5371C124.485 11.0605 124.606 10.5304 124.606 9.94813C124.606 9.3824 124.485 8.85677 124.242 8.37186C123.999 7.88695 123.66 7.47077 123.224 7.12268C122.787 6.77523 122.277 6.50032 121.696 6.29796C121.113 6.09623 120.483 5.99505 119.804 5.99505H108.938L112.14 1.7747H119.804C121.227 1.7747 122.536 1.96943 123.733 2.35697C124.929 2.74452 125.96 3.29115 126.825 3.9937C127.689 4.69751 128.365 5.53814 128.85 6.51623C129.335 7.49495 129.578 8.56595 129.578 9.72985Z" fill="white"/>
<path d="M155.14 18H148.422L144.809 13.7077H137.096V18H132.076V9.70567H146.191C146.967 9.70567 147.622 9.54404 148.155 9.22077C148.689 8.89686 148.956 8.45268 148.956 7.88632C148.956 7.25568 148.713 6.78287 148.228 6.46787C147.743 6.15287 147.064 5.99505 146.191 5.99505H132.076L135.35 1.77471H145.779C146.7 1.77471 147.654 1.85998 148.641 2.02925C149.627 2.19916 150.524 2.50207 151.333 2.93925C152.141 3.37579 152.808 3.9657 153.334 4.7096C153.859 5.45351 154.122 6.40678 154.122 7.57132C154.122 8.20195 154.025 8.80013 153.831 9.36649C153.637 9.93222 153.358 10.4413 152.994 10.8938C152.631 11.3468 152.185 11.7306 151.66 12.0462C151.135 12.3618 150.54 12.5833 149.877 12.7125C150.152 12.9231 150.46 13.1897 150.799 13.513C151.139 13.8369 151.591 14.2811 152.158 14.8475L155.14 18Z" fill="white"/>
<path d="M167.704 14.0453C168.965 14.0453 170.032 13.9931 170.905 13.8875C171.778 13.7825 172.486 13.5769 173.027 13.2689C173.569 12.9622 173.961 12.5377 174.203 11.9956C174.446 11.4547 174.567 10.7464 174.567 9.8733C174.567 9.00021 174.446 8.29321 174.203 7.75103C173.961 7.21013 173.569 6.79013 173.027 6.4904C172.486 6.19131 171.778 5.98959 170.905 5.88395C170.032 5.77895 168.965 5.72677 167.704 5.72677C166.443 5.72677 165.376 5.77895 164.503 5.88395C163.63 5.98959 162.921 6.19131 162.38 6.4904C161.838 6.79013 161.446 7.21013 161.204 7.75103C160.961 8.29321 160.84 9.00021 160.84 9.8733C160.84 10.7464 160.961 11.4547 161.204 11.9956C161.446 12.5377 161.838 12.9622 162.38 13.2689C162.921 13.5769 163.63 13.7825 164.503 13.8875C165.376 13.9931 166.443 14.0453 167.704 14.0453ZM167.704 1.50642C171.648 1.50642 174.611 2.17779 176.592 3.51923C178.573 4.86132 179.563 6.97913 179.563 9.8733C179.563 12.7846 178.577 14.9101 176.604 16.2522C174.632 17.5943 171.665 18.2656 167.704 18.2656C163.726 18.2656 160.755 17.5943 158.791 16.2522C156.826 14.9101 155.844 12.7846 155.844 9.8733C155.844 6.97913 156.83 4.86132 158.803 3.51923C160.775 2.17779 163.742 1.50642 167.704 1.50642Z" fill="white"/>
<path d="M203.524 7.86214C203.524 8.76768 203.347 9.58858 202.991 10.3236C202.635 11.0598 202.114 11.686 201.426 12.2034C200.739 12.7214 199.903 13.1255 198.916 13.4163C197.93 13.7077 196.806 13.8528 195.545 13.8528H187.057V18H182.061V9.70504H196.031C196.806 9.70504 197.409 9.53577 197.837 9.19658C198.265 8.85613 198.48 8.40432 198.48 7.83795C198.48 7.27223 198.265 6.8236 197.837 6.49205C197.409 6.16051 196.806 5.99442 196.031 5.99442H182.061L185.383 1.77471H195.57C196.83 1.77471 197.954 1.92425 198.941 2.22334C199.927 2.52243 200.759 2.93925 201.439 3.47252C202.118 4.00579 202.635 4.6447 202.991 5.38796C203.347 6.13187 203.524 6.95659 203.524 7.86214Z" fill="white"/>
<path d="M217.422 14.0453C218.684 14.0453 219.751 13.9931 220.624 13.8875C221.497 13.7825 222.205 13.5769 222.746 13.2689C223.288 12.9622 223.68 12.5377 223.922 11.9956C224.165 11.4547 224.286 10.7464 224.286 9.8733C224.286 9.00021 224.165 8.29321 223.922 7.75103C223.68 7.21013 223.288 6.79013 222.746 6.4904C222.205 6.19131 221.497 5.98959 220.624 5.88395C219.751 5.77895 218.684 5.72677 217.422 5.72677C216.162 5.72677 215.095 5.77895 214.221 5.88395C213.348 5.98959 212.64 6.19131 212.099 6.4904C211.557 6.79013 211.165 7.21013 210.923 7.75103C210.68 8.29321 210.559 9.00021 210.559 9.8733C210.559 10.7464 210.68 11.4547 210.923 11.9956C211.165 12.5377 211.557 12.9622 212.099 13.2689C212.64 13.5769 213.348 13.7825 214.221 13.8875C215.095 13.9931 216.162 14.0453 217.422 14.0453ZM217.422 1.50642C221.367 1.50642 224.33 2.17779 226.311 3.51923C228.291 4.86132 229.282 6.97913 229.282 9.8733C229.282 12.7846 228.296 14.9101 226.323 16.2522C224.35 17.5943 221.384 18.2656 217.422 18.2656C213.445 18.2656 210.474 17.5943 208.509 16.2522C206.545 14.9101 205.562 12.7846 205.562 9.8733C205.562 6.97913 206.549 4.86132 208.522 3.51923C210.494 2.17779 213.46 1.50642 217.422 1.50642Z" fill="white"/>
<path d="M247.131 11.9599C246.775 11.3293 246.467 10.7757 246.21 10.2984C245.951 9.82175 245.716 9.39284 245.506 9.01294C245.295 8.63303 245.114 8.2894 244.96 7.98203C244.806 7.67531 244.657 7.37622 244.512 7.08476C244.382 7.37622 244.241 7.67531 244.087 7.98203C243.933 8.2894 243.755 8.63303 243.553 9.01294C243.352 9.39284 243.121 9.8173 242.862 10.2863C242.603 10.7553 242.296 11.3051 241.941 11.9357L239.346 16.5436C239.055 17.0616 238.687 17.4772 238.242 17.7928C237.797 18.1078 237.244 18.2656 236.581 18.2656C235.95 18.2656 235.38 18.0836 234.871 17.7196C234.362 17.3556 233.993 16.7944 233.768 16.0339L229.645 1.77306H234.665L236.193 7.42458C236.451 8.34603 236.666 9.15485 236.835 9.84975C237.005 10.5447 237.154 11.2243 237.284 11.8874C237.543 11.321 237.845 10.6948 238.193 10.0076C238.541 9.3203 238.998 8.45103 239.563 7.4004L241.747 3.32578C241.957 2.92169 242.167 2.60224 242.377 2.36806C242.587 2.13388 242.81 1.95124 243.044 1.82142C243.278 1.69224 243.525 1.60761 243.784 1.56752C244.042 1.52679 244.318 1.50642 244.609 1.50642C244.916 1.50642 245.198 1.52679 245.457 1.56752C245.716 1.60761 245.963 1.69224 246.197 1.82142C246.431 1.95124 246.658 2.13388 246.877 2.36806C247.094 2.60224 247.309 2.92169 247.519 3.32578L249.677 7.42458C249.984 7.99094 250.251 8.48794 250.478 8.91621C250.704 9.34448 250.906 9.73266 251.084 10.0801C251.262 10.4282 251.42 10.747 251.557 11.0385C251.694 11.3293 251.827 11.6118 251.957 11.8874C252.086 11.2402 252.244 10.5612 252.43 9.84975C252.616 9.1383 252.83 8.33012 253.073 7.42458L254.601 1.77306H259.5L255.305 16.0339C255.077 16.7944 254.71 17.3556 254.2 17.7196C253.691 18.0836 253.121 18.2656 252.491 18.2656C251.844 18.2656 251.299 18.1116 250.854 17.8049C250.408 17.4975 250.033 17.0769 249.726 16.5436L247.131 11.9599Z" fill="white"/>
<path d="M280.262 13.8287L277.037 18H261.418V1.77471H280.214L276.964 5.99442H266.462V7.93468H279.316L276.43 11.6211H266.462V13.8287H280.262Z" fill="white"/>
<path d="M305 18H298.282L294.668 13.7077H286.956V18H281.936V9.70567H296.051C296.826 9.70567 297.482 9.54404 298.014 9.22077C298.548 8.89686 298.815 8.45268 298.815 7.88632C298.815 7.25568 298.573 6.78287 298.088 6.46787C297.603 6.15287 296.924 5.99505 296.051 5.99505H281.936L285.209 1.77471H295.638C296.56 1.77471 297.514 1.85998 298.5 2.02925C299.486 2.19916 300.384 2.50207 301.192 2.93925C302.001 3.37579 302.668 3.9657 303.193 4.7096C303.718 5.45351 303.981 6.40678 303.981 7.57132C303.981 8.20195 303.884 8.80013 303.69 9.36649C303.496 9.93222 303.217 10.4413 302.853 10.8938C302.49 11.3468 302.045 11.7306 301.52 12.0462C300.994 12.3618 300.4 12.5833 299.736 12.7125C300.011 12.9231 300.319 13.1897 300.659 13.513C300.998 13.8369 301.451 14.2811 302.017 14.8475L305 18Z" fill="white"/>
<path d="M103.408 37.3447C105.396 37.3447 106.908 37.7119 107.943 38.4475C108.978 39.1838 109.495 40.2955 109.495 41.7827C109.495 42.6074 109.365 43.3507 109.108 44.0138C108.849 44.6769 108.436 45.2343 107.87 45.6868C107.304 46.1398 106.581 46.4873 105.7 46.7304C104.818 46.9728 103.763 47.0938 102.535 47.0938H87.4248L90.6505 42.9224H102.923C103.521 42.9224 103.957 42.8295 104.232 42.6437C104.507 42.4579 104.645 42.155 104.645 41.7337C104.645 41.3137 104.507 41.0152 104.232 40.8364C103.957 40.6589 103.521 40.5698 102.923 40.5698H94.0945C93.0439 40.5698 92.1383 40.4571 91.3785 40.23C90.6181 40.0041 89.9874 39.6891 89.4866 39.2843C88.9852 38.8802 88.6135 38.3915 88.3711 37.8169C88.1286 37.2435 88.0071 36.6091 88.0071 35.9135C88.0071 35.1537 88.1407 34.4626 88.4073 33.8396C88.674 33.2179 89.0863 32.6878 89.6444 32.2513C90.2019 31.8147 90.921 31.4749 91.803 31.2331C92.6837 30.9906 93.7388 30.8685 94.9676 30.8685H109.059L105.833 35.0888H94.58C93.9978 35.0888 93.5644 35.1703 93.2825 35.3313C92.9993 35.4935 92.8574 35.7843 92.8574 36.2043C92.8574 36.625 92.9993 36.9202 93.2825 37.0902C93.5644 37.2594 93.9978 37.3447 94.58 37.3447H103.408Z" fill="white"/>
<path d="M123.079 43.1475C124.34 43.1475 125.407 43.0947 126.28 42.9897C127.153 42.8847 127.861 42.6785 128.402 42.3711C128.944 42.0644 129.336 41.6399 129.578 41.0978C129.821 40.5562 129.942 39.8486 129.942 38.9755C129.942 38.1024 129.821 37.3954 129.578 36.8532C129.336 36.3123 128.944 35.8923 128.402 35.5926C127.861 35.2935 127.153 35.0918 126.28 34.9862C125.407 34.8812 124.34 34.829 123.079 34.829C121.818 34.829 120.751 34.8812 119.878 34.9862C119.005 35.0918 118.296 35.2935 117.755 35.5926C117.213 35.8923 116.821 36.3123 116.579 36.8532C116.336 37.3954 116.215 38.1024 116.215 38.9755C116.215 39.8486 116.336 40.5562 116.579 41.0978C116.821 41.6399 117.213 42.0644 117.755 42.3711C118.296 42.6785 119.005 42.8847 119.878 42.9897C120.751 43.0947 121.818 43.1475 123.079 43.1475ZM123.079 30.6086C127.023 30.6086 129.986 31.28 131.967 32.6214C133.948 33.9635 134.938 36.0813 134.938 38.9755C134.938 41.8862 133.952 44.0123 131.979 45.3544C130.007 46.6965 127.04 47.3672 123.079 47.3672C119.101 47.3672 116.13 46.6965 114.166 45.3544C112.201 44.0123 111.219 41.8862 111.219 38.9755C111.219 36.0813 112.205 33.9635 114.178 32.6214C116.15 31.28 119.117 30.6086 123.079 30.6086Z" fill="white"/>
<path d="M155.07 42.9218L151.82 47.0938H137.486V30.8685H142.507V42.9218H155.07Z" fill="white"/>
<path d="M177.818 40.0185C177.818 44.9178 174.447 47.3672 167.704 47.3672C165.747 47.3672 164.067 47.2138 162.66 46.9065C161.254 46.5997 160.093 46.1384 159.18 45.5236C158.266 44.9102 157.595 44.1453 157.167 43.2321C156.738 42.3189 156.523 41.2479 156.523 40.0185V30.8753H161.52V40.0185C161.52 40.6167 161.601 41.1188 161.763 41.5222C161.924 41.9269 162.227 42.254 162.672 42.5041C163.116 42.7555 163.743 42.933 164.551 43.038C165.36 43.1437 166.411 43.1958 167.704 43.1958C168.675 43.1958 169.483 43.1392 170.129 43.0266C170.777 42.9133 171.294 42.7268 171.682 42.4685C172.07 42.2095 172.348 41.8779 172.519 41.4738C172.688 41.0698 172.773 40.5849 172.773 40.0185V30.8753H177.818V40.0185Z" fill="white"/>
<path d="M200.809 30.8685L197.559 35.0888H191.762V47.0938H186.742V35.0888H179.126L182.376 30.8685H200.809Z" fill="white"/>
<path d="M207.429 47.0938H202.409V30.8685H207.429V47.0938Z" fill="white"/>
<path d="M221.91 43.1475C223.171 43.1475 224.239 43.0947 225.112 42.9897C225.985 42.8847 226.692 42.6785 227.234 42.3711C227.775 42.0644 228.167 41.6399 228.41 41.0978C228.653 40.5562 228.774 39.8486 228.774 38.9755C228.774 38.1024 228.653 37.3954 228.41 36.8532C228.167 36.3123 227.775 35.8923 227.234 35.5926C226.692 35.2935 225.985 35.0918 225.112 34.9862C224.239 34.8812 223.171 34.829 221.91 34.829C220.65 34.829 219.582 34.8812 218.709 34.9862C217.836 35.0918 217.128 35.2935 216.587 35.5926C216.045 35.8923 215.653 36.3123 215.41 36.8532C215.168 37.3954 215.047 38.1024 215.047 38.9755C215.047 39.8486 215.168 40.5562 215.41 41.0978C215.653 41.6399 216.045 42.0644 216.587 42.3711C217.128 42.6785 217.836 42.8847 218.709 42.9897C219.582 43.0947 220.65 43.1475 221.91 43.1475ZM221.91 30.6086C225.855 30.6086 228.818 31.28 230.799 32.6214C232.779 33.9635 233.77 36.0813 233.77 38.9755C233.77 41.8862 232.784 44.0123 230.811 45.3544C228.838 46.6965 225.871 47.3672 221.91 47.3672C217.933 47.3672 214.962 46.6965 212.997 45.3544C211.033 44.0123 210.05 41.8862 210.05 38.9755C210.05 36.0813 211.037 33.9635 213.009 32.6214C214.981 31.28 217.948 30.6086 221.91 30.6086Z" fill="white"/>
<path d="M252.758 47.3672C252.434 47.3672 252.116 47.315 251.8 47.21C251.485 47.1044 251.133 46.8664 250.745 46.4941L240.802 37.5691V47.1006H236.242V33.6402C236.242 33.107 236.319 32.6456 236.472 32.2581C236.625 31.8693 236.828 31.5543 237.078 31.3124C237.329 31.07 237.62 30.8918 237.951 30.7785C238.283 30.6659 238.627 30.6086 238.983 30.6086C239.29 30.6086 239.601 30.6614 239.916 30.7664C240.231 30.8714 240.591 31.1101 240.996 31.4817L250.94 40.4067V30.8753H255.523V44.3114C255.523 44.8453 255.446 45.306 255.292 45.6936C255.139 46.0817 254.937 46.4012 254.686 46.6519C254.436 46.9033 254.14 47.0846 253.801 47.1973C253.461 47.3106 253.114 47.3672 252.758 47.3672Z" fill="white"/>
<path d="M273.519 37.3447C275.508 37.3447 277.02 37.7119 278.055 38.4475C279.089 39.1838 279.607 40.2955 279.607 41.7827C279.607 42.6074 279.477 43.3507 279.219 44.0138C278.96 44.6769 278.548 45.2343 277.982 45.6868C277.416 46.1398 276.692 46.4873 275.811 46.7304C274.93 46.9728 273.875 47.0938 272.646 47.0938H257.537L260.762 42.9224H273.034C273.633 42.9224 274.068 42.8295 274.344 42.6437C274.619 42.4579 274.756 42.155 274.756 41.7337C274.756 41.3137 274.619 41.0152 274.344 40.8364C274.068 40.6589 273.633 40.5698 273.034 40.5698H264.206C263.155 40.5698 262.25 40.4571 261.49 40.23C260.73 40.0041 260.099 39.6891 259.598 39.2843C259.097 38.8802 258.725 38.3915 258.483 37.8169C258.24 37.2435 258.119 36.6091 258.119 35.9135C258.119 35.1537 258.252 34.4626 258.519 33.8396C258.786 33.2179 259.198 32.6878 259.756 32.2513C260.314 31.8147 261.033 31.4749 261.915 31.2331C262.795 30.9906 263.85 30.8685 265.079 30.8685H279.17L275.945 35.0888H264.692C264.109 35.0888 263.676 35.1703 263.394 35.3313C263.111 35.4935 262.97 35.7843 262.97 36.2043C262.97 36.625 263.111 36.9202 263.394 37.0902C263.676 37.2594 264.109 37.3447 264.692 37.3447H273.519Z" fill="white"/>
<path d="M38.3344 26.036C38.3344 33.6854 32.1335 39.8867 24.4837 39.8867C16.8343 39.8867 10.6333 33.6854 10.6333 26.036C10.6333 18.3866 16.8343 12.1852 24.4837 12.1852C32.1335 12.1852 38.3344 18.3866 38.3344 26.036Z" stroke="#30ABE0" stroke-width="0.142618"/>
<path d="M24.6206 7.78516V7.38036" stroke="#30ABE0" stroke-width="0.169969"/>
<path d="M24.6206 1.58203V0.649349" stroke="#30ABE0" stroke-width="0.169969"/>
<path d="M7.98127 24.6133H7.7417" stroke="#30ABE0" stroke-width="0.169969"/>
<path d="M1.59558 24.6133H1.00244" stroke="#30ABE0" stroke-width="0.169969"/>
<path d="M42.6431 31.2689L42.5275 31.5869L45.5861 34.3494L43.5324 37.9L39.6059 36.6344L39.3891 36.9021C38.6369 37.7988 37.798 38.6303 36.9013 39.3825L36.6336 39.6067L37.9066 43.5262L34.356 45.5799L31.5935 42.5208L31.2681 42.6439C30.1834 43.0417 29.0409 43.3453 27.8765 43.5477L27.5295 43.6055L26.6687 47.6406H22.5688L21.7084 43.6055L21.361 43.5477C20.1896 43.3453 19.0541 43.0417 17.9694 42.6439L17.6439 42.5208L14.8818 45.5799L11.3312 43.5262L11.3457 43.4828L12.6039 39.6067L12.5964 39.5993L12.3362 39.3825C11.4324 38.6303 10.6006 37.7988 9.84879 36.9021L9.63154 36.6344L5.70505 37.9L3.65135 34.3494L3.66581 34.335L6.55099 31.7315L6.66665 31.6303L6.71041 31.5869L6.59436 31.2689C6.43534 30.8348 6.29076 30.3866 6.16065 29.931C5.96528 29.2585 5.81368 28.5716 5.6906 27.8703L5.63277 27.5303L1.59766 26.6625V24.6158H7.74429C7.73726 24.5002 7.73726 24.3775 7.73726 24.2614C7.73726 14.933 14.9322 7.36882 23.8054 7.36882C24.0801 7.36882 24.3478 7.37625 24.6225 7.3907V1.59104H26.6687L27.5295 5.62615H27.5365C27.5584 5.62615 27.5873 5.63357 27.6088 5.64061L27.8765 5.68398C28.6068 5.81448 29.33 5.98054 30.0388 6.18294C30.0822 6.1974 30.1256 6.21186 30.1615 6.21928C30.5378 6.33494 30.9066 6.45802 31.2681 6.58814L31.5861 6.71082H31.5935L31.6299 6.66746L34.3486 3.65919L34.356 3.65216L37.9066 5.69843L36.6336 9.62531L36.9013 9.84959C37.798 10.5943 38.6369 11.4332 39.3891 12.33L39.6059 12.5972L43.5324 11.3246L45.5861 14.8752L42.5275 17.6377L42.6431 17.9632C43.0409 19.0479 43.3445 20.1904 43.5469 21.3618L43.6047 21.7017L47.6398 22.5621V26.6625L43.6047 27.5303L43.5469 27.8703C43.3445 29.0417 43.0409 30.1842 42.6431 31.2689Z" fill="white"/>
<path d="M45.587 34.3491L43.5333 37.8997L39.6064 36.6341L39.3896 36.9018C38.6374 37.7985 37.7989 38.63 36.9021 39.3822L36.6345 39.6065L37.9071 43.5259L34.3565 45.5796L31.594 42.5206L31.2689 42.6436C30.1843 43.0414 29.0414 43.345 27.8774 43.5474L27.53 43.6052L26.6696 47.6403H22.5692L21.7088 43.6052L21.3619 43.5474C20.1904 43.345 19.055 43.0414 17.9703 42.6436L17.6448 42.5206L14.8823 45.5796L11.3317 43.5259L11.3462 43.4825L12.6043 39.6065L12.5973 39.599L12.3371 39.3822C11.4329 38.63 10.6014 37.7985 9.84927 36.9018L9.63242 36.6341L5.70593 37.8997L3.65223 34.3491L3.66668 34.3347L6.55187 31.7312L6.66752 31.63L6.71089 31.5866L6.59524 31.2686C6.43621 30.8349 6.29164 30.3863 6.16152 29.9307C5.96616 29.2583 5.81416 28.5713 5.69147 27.87L5.63364 27.53L1.59814 26.6622V22.5618L5.63364 21.7015L5.69147 21.3615C5.89387 20.1901 6.19747 19.0476 6.59524 17.9629L6.71089 17.6374L3.65223 14.8749L5.70593 11.3243L9.63242 12.597L9.84927 12.3297C10.6014 11.433 11.4329 10.594 12.3371 9.84931L12.6043 9.62503L11.3317 5.69815L14.8823 3.65187L17.6448 6.71054L17.9703 6.58785C19.055 6.19008 20.1975 5.88648 21.3619 5.68369L21.7088 5.62586L22.5692 1.59075H26.6696L27.53 5.62586H27.5374C27.5589 5.62586 27.5878 5.63329 27.6097 5.64032L27.8774 5.68369C28.6076 5.8142 29.3309 5.98026 30.0393 6.18266C30.0827 6.19712 30.1264 6.21157 30.1624 6.219C30.5383 6.33466 30.9071 6.45774 31.2689 6.58785L31.587 6.71054H31.594L31.6304 6.66717L34.3495 3.65891L34.3565 3.65187L37.9071 5.69815L36.6345 9.62503L36.9021 9.84931C37.7989 10.594 38.6374 11.433 39.3896 12.3297L39.6064 12.597L43.5333 11.3243L45.587 14.8749L42.5279 17.6374L42.644 17.9629C43.0414 19.0476 43.3454 20.1901 43.5478 21.3615L43.6056 21.7015L47.6407 22.5618V26.6622L43.6056 27.53L43.5478 27.87C43.3454 29.0414 43.0414 30.1839 42.644 31.2686L42.5279 31.5866L45.587 34.3491ZM48.6675 27.4937V21.7374L44.4949 20.8407C44.3069 19.8502 44.0538 18.8741 43.7212 17.941L46.8885 15.0848L44.0033 10.0951L39.9464 11.4111C39.2958 10.6519 38.5796 9.94309 37.8278 9.28509L39.1364 5.2281L34.1471 2.34995L31.2978 5.51021C30.3577 5.18473 29.3887 4.9245 28.3908 4.73655L27.5011 0.563902H21.7378L20.8484 4.73655C19.8505 4.9245 18.8815 5.18473 17.9414 5.51021L15.0921 2.34995L10.1025 5.2281L11.4114 9.28509C10.6593 9.94309 9.94344 10.6519 9.29248 11.4111L5.23588 10.0951L2.3503 15.0848L5.51759 17.941C5.18508 18.8741 4.93188 19.8502 4.74394 20.8407L0.571289 21.7374V27.4937L4.74394 28.3834C4.93188 29.3813 5.18508 30.3574 5.51759 31.2901L2.3503 34.1467L5.23588 39.129L9.29248 37.8204C9.94344 38.5796 10.6593 39.288 11.4114 39.9464L10.1025 44.003L15.0847 46.8811L17.9414 43.7209C18.8815 44.0464 19.8505 44.3066 20.8484 44.4949L21.7378 48.6602H27.5011L28.3908 44.4949C29.3887 44.3066 30.3577 44.0464 31.2978 43.7209L34.1471 46.8811L39.1364 44.003L37.8278 39.9464C38.5796 39.288 39.2958 38.5796 39.9464 37.8204L44.0033 39.129L46.8885 34.1467L43.7212 31.2901C44.0538 30.3574 44.3069 29.3813 44.4949 28.3834L48.6675 27.4937Z" fill="#0B539F"/>
<path d="M24.6225 1.58849V7.38815C24.3478 7.3737 24.0801 7.36627 23.8054 7.36627C14.9322 7.36627 7.73726 14.9305 7.73726 24.2589C7.73726 24.3745 7.73726 24.4976 7.7443 24.6133H1.59766V22.5596L5.63277 21.6992L5.6906 21.3592C5.893 20.1878 6.1966 19.0453 6.59436 17.9603L6.71041 17.6352L3.65135 14.8727L5.70505 11.3221L9.63154 12.5947L9.84879 12.327C10.6006 11.4303 11.4324 10.5918 12.3362 9.84665L12.6039 9.62276L11.3312 5.69588L14.8818 3.64961L17.6439 6.70828L17.9694 6.58559C19.0541 6.18782 20.1966 5.88383 21.361 5.68143L21.7084 5.6236L22.5688 1.58849H24.6225Z" fill="white"/>
<path d="M40.9059 25.5133C40.9059 34.7838 33.7539 42.3047 24.9319 42.3047C20.3975 42.3047 16.3045 40.3159 13.3975 37.1196C16.2033 39.6364 19.8336 41.1548 23.8035 41.1548C32.6767 41.1548 39.8717 33.5909 39.8717 24.2551C39.8717 20.4294 38.6569 16.9007 36.6176 14.0734C39.2789 17.0672 40.9059 21.0878 40.9059 25.5133Z" fill="white"/>
<path d="M40.6458 33.0747L38.5268 36.7409L35.1935 34.8173C32.6553 37.9123 28.8007 39.8867 24.4835 39.8867C20.0725 39.8867 16.1385 37.8256 13.6074 34.6079L10.31 36.5096L8.19141 32.8433L11.5248 30.9268C10.9465 29.4084 10.6354 27.7595 10.6354 26.0383C10.6354 19.0602 15.7916 13.2824 22.502 12.3278V8.52404H26.7325V12.3638C33.3133 13.4414 38.3319 19.1544 38.3319 26.0383C38.3319 27.8537 37.9845 29.5819 37.3484 31.173L40.6458 33.0747Z" fill="white"/>
<path d="M21.6763 25.9793C21.6763 27.5098 22.9169 28.75 24.447 28.75C25.9775 28.75 27.2181 27.5098 27.2181 25.9793C27.2181 24.4492 25.9775 23.2086 24.447 23.2086C22.9169 23.2086 21.6763 24.4492 21.6763 25.9793Z" fill="#0B539F"/>
<path d="M20.854 15.4838C20.811 20.6177 17.9282 25.3436 13.4961 27.7794C13.4004 27.1898 13.3523 26.5896 13.3523 25.9828C13.3523 21.1475 16.4157 16.9846 20.854 15.4838ZM22.4943 15.367C22.4943 14.709 22.451 14.0584 22.3716 13.4219C16.3262 14.4124 11.7124 19.6627 11.7124 25.9828C11.7124 27.4219 11.9511 28.8102 12.3923 30.0977C18.3002 27.8197 22.4943 22.0778 22.4943 15.367Z" fill="#0B539F"/>
<path d="M31.4758 34.5809C31.0128 34.9587 30.517 35.3006 29.9914 35.6042C28.307 36.5767 26.3951 37.0906 24.4617 37.0906C21.7356 37.0906 19.154 36.111 17.1495 34.3562C19.2736 33.1535 21.6762 32.5182 24.105 32.5182C26.7108 32.5182 29.2697 33.2418 31.4758 34.5809ZM16.2266 32.9949C15.6569 33.3239 15.115 33.6869 14.6035 34.0741C17.0644 37.08 20.7201 38.7305 24.4617 38.7305C26.6205 38.7305 28.8087 38.1807 30.8112 37.0245C32.0572 36.3052 33.1403 35.4041 34.0347 34.3785C31.214 32.1013 27.6916 30.8783 24.1042 30.8783C21.4257 30.8783 18.7113 31.5605 16.2266 32.9949Z" fill="#0B539F"/>
<path d="M29.9972 16.3851C34.1847 18.8026 36.2583 23.5371 35.3389 28.1314C30.9142 25.5271 28.2627 20.6676 28.369 15.6115C28.9277 15.8233 29.4716 16.0815 29.9972 16.3851ZM34.6196 29.6103C35.1896 29.9393 35.775 30.2273 36.3657 30.4766C38.5304 24.7457 36.2907 18.1251 30.8169 14.9648C29.5709 14.2455 28.249 13.7578 26.9139 13.4964C25.9324 19.7517 28.8078 26.2551 34.6196 29.6103Z" fill="#0B539F"/>
<path d="M25.519 9.89557H23.7153V21.5586H25.519V9.89557Z" fill="#0B539F"/>
<path d="M20.0717 27.2745L9.97119 33.1058L10.873 34.668L20.9735 28.8367L20.0717 27.2745Z" fill="#0B539F"/>
<path d="M28.6523 27.5714L27.7505 29.1331L37.851 34.9648L38.7528 33.4031L28.6523 27.5714Z" fill="#0B539F"/>
<path d="M5.63162 27.5309C6.02587 28.9723 6.45724 30.4067 7.04569 31.768C5.86176 32.5327 4.80756 33.5091 3.72836 34.4375L3.60254 34.2351C4.63447 33.3087 5.61677 32.3893 6.76749 31.5777L6.71005 31.7614C6.22202 30.3778 5.91647 28.9539 5.63162 27.5309Z" fill="white"/>
<path d="M27.5063 5.62148C28.9294 5.90633 30.3532 6.21188 31.7368 6.69991L31.5532 6.75734C32.3647 5.60663 33.3115 4.59385 34.2383 3.56192L34.413 3.71821C33.4846 4.79742 32.5081 5.85162 31.7435 7.03516C30.3822 6.4471 28.9478 6.01573 27.5063 5.62148Z" fill="white"/>
<path d="M11.4755 43.5664L11.209 43.3921L12.4558 39.5524L12.7481 39.647L11.4755 43.5664Z" fill="white"/>
</svg>
